# xmcd
#
# Track frame offsets:
#	150
#	7652
#	26524
#	30566
#	50967
#	74786
#	186885
#
# Disc length: 2774 seconds
#
# Revision: 1
# Processed by: cddbd v1.5.1PL0 Copyright (c) Steve Scherf et al.
# Submitted via: CDex 1.50Beta5
#
DISCID=5a0ad407
DTITLE=JINMO - Contre-Attaque Γ
DYEAR=1900
DGENRE=Unclassifiable
TTITLE0=Traumerei
TTITLE1=Midnight
TTITLE2=Russian Cluster
TTITLE3=Caprice No.24
TTITLE4=The Spiral Of Nano-Picking
TTITLE5=Yamato-Shi Uruwa-Shi(Gou-Gou Chikuzan)
TTITLE6=The Sound Of Kanki:Kyu
EXTD=
EXTT0=
EXTT1=
EXTT2=
EXTT3=
EXTT4=
EXTT5=
EXTT6=
PLAYORDER=
